<svg xmlns="http://www.w3.org/2000/svg" xmlns:xlink="http://www.w3.org/1999/xlink" version="1.1" x="0px" y="0px" viewBox="0 0 100 125" enable-background="new 0 0 100 100" xml:space="preserve"><path d="M9.2,95.3H5.5h0V81.3c0-2.5,0.5-4.9,1.4-7c1.3-3.2,3.6-5.8,6.4-7.6C16,65,19.4,64,23.1,64l55.1,0c2.6,0,5,0.6,7.1,1.6  c1.6,0.8,3,1.8,4.2,2.9c1.8,1.7,3.2,3.8,4.2,6c1,2.2,1.5,4.5,1.5,6.7v14.1h-3.8H9.2z M25.7,32.4c0,5.1,1.6,9.8,4.2,13.8  c2.7,3.9,6.4,7.1,10.8,8.9c2.9,1.2,6.2,1.9,9.6,1.9c5.1,0,9.8-1.6,13.8-4.2c3.9-2.7,7.1-6.4,8.9-10.8c1.2-2.9,1.9-6.2,1.9-9.6  c0-5.1-1.6-9.8-4.2-13.8c-2.7-3.9-6.4-7.1-10.8-8.9c-2.9-1.2-6.2-1.9-9.6-1.9c-5.1,0-9.8,1.6-13.8,4.2c-3.9,2.7-7.1,6.4-8.9,10.8  C26.4,25.7,25.7,29,25.7,32.4 M50.3,25.2c2,0,3.8,0.8,5.1,2.1c1.3,1.3,2.1,3.1,2.1,5.1c0,2.2-1,4.1-2.5,5.4  c-1.3,1.1-2.9,1.8-4.7,1.8c-4,0-7.2-3.2-7.2-7.2S46.4,25.2,50.3,25.2z M50.3,31c0.8,0,1.4,0.6,1.4,1.4s-0.6,1.4-1.4,1.4  c-0.8,0-1.4-0.6-1.4-1.4S49.6,31,50.3,31z M50.3,19.6c-3.5,0-6.7,1.4-9,3.7c-2.3,2.3-3.7,5.5-3.7,9h-1.6c0-7.9,6.4-14.4,14.4-14.4  V19.6L50.3,19.6z M50.4,15.6c-4.6,0-8.8,1.9-11.9,4.9c-3,3-4.9,7.2-4.9,11.9H32C32,22.2,40.2,14,50.4,14V15.6L50.4,15.6z M50.4,45.1  c3.5,0,6.7-1.4,9-3.7c2.3-2.3,3.7-5.5,3.7-9h1.6c0,7.9-6.4,14.4-14.4,14.4V45.1L50.4,45.1z M50.3,49.1c4.6,0,8.8-1.9,11.9-4.9  c3-3,4.9-7.2,4.9-11.9h1.6c0,10.2-8.2,18.4-18.4,18.4V49.1L50.3,49.1z"/><text x="0" y="115" fill="#000000" font-size="5px" font-weight="bold" font-family="'Helvetica Neue', Helvetica, Arial-Unicode, Arial, Sans-serif">Created by Maximillian Piras</text><text x="0" y="120" fill="#000000" font-size="5px" font-weight="bold" font-family="'Helvetica Neue', Helvetica, Arial-Unicode, Arial, Sans-serif">from the Noun Project</text></svg>